<mxfile host="app.diagrams.net" modified="2023-05-01T01:22:18.952Z" agent="Mozilla/5.0 (Macintosh; Intel Mac OS X 10_15_7) AppleWebKit/537.36 (KHTML, like Gecko) Chrome/112.0.0.0 Safari/537.36" etag="gv3VFCacFyZxSJ19hOiT" version="21.2.3" type="github">
  <diagram id="3228e29e-7158-1315-38df-8450db1d8a1d" name="Page-1">
    <mxGraphModel dx="871" dy="213" grid="0" gridSize="10" guides="1" tooltips="1" connect="1" arrows="1" fold="1" page="1" pageScale="1" pageWidth="600" pageHeight="300" background="#EFF1F3" math="0" shadow="0">
      <root>
        <mxCell id="0" />
        <mxCell id="1" parent="0" />
        <mxCell id="GdjG1Uhx_Fd8zdyyqZ3t-11" value="&lt;font style=&quot;font-size: 25px;&quot; color=&quot;#ffffff&quot;&gt;&lt;b&gt;KCP&lt;/b&gt;&lt;/font&gt;" style="rounded=1;whiteSpace=wrap;html=1;fillColor=#4A919B;strokeWidth=2;strokeColor=none;" parent="1" vertex="1">
          <mxGeometry x="219" y="383" width="85" height="134" as="geometry" />
        </mxCell>
        <mxCell id="LvesvwtV2vatUiFBe1HR-21533" value="" style="shape=image;verticalLabelPosition=bottom;verticalAlign=top;imageAspect=0;aspect=fixed;image=data:image/svg+xml,PHN2ZyB4bWxuczp4bGluaz0iaHR0cDovL3d3dy53My5vcmcvMTk5OS94bGluayIgeG1sbnM9Imh0dHA6Ly93d3cudzMub3JnLzIwMDAvc3ZnIiBoZWlnaHQ9IjIwMCIgd2lkdGg9IjIwMCIgdmVyc2lvbj0iMS4xIiB2aWV3Qm94PSIwIDAgMTAyNCAxMDI0IiBjbGFzcz0iaWNvbiI+PGRlZnM+PHN0eWxlIHR5cGU9InRleHQvY3NzIj5AZm9udC1mYWNlIHsgZm9udC1mYW1pbHk6IGZlZWRiYWNrLWljb25mb250OyBzcmM6IHVybCgiLy9hdC5hbGljZG4uY29tL3QvZm9udF8xMDMxMTU4X3U2OXc4eWh4ZHUud29mZjI/dD0xNjMwMDMzNzU5OTQ0IikgZm9ybWF0KCJ3b2ZmMiIpLCB1cmwoIi8vYXQuYWxpY2RuLmNvbS90L2ZvbnRfMTAzMTE1OF91Njl3OHloeGR1LndvZmY/dD0xNjMwMDMzNzU5OTQ0IikgZm9ybWF0KCJ3b2ZmIiksIHVybCgiLy9hdC5hbGljZG4uY29tL3QvZm9udF8xMDMxMTU4X3U2OXc4eWh4ZHUudHRmP3Q9MTYzMDAzMzc1OTk0NCIpIGZvcm1hdCgidHJ1ZXR5cGUiKTsgfSYjeGE7PC9zdHlsZT48L2RlZnM+PHBhdGggZmlsbD0iIzRBOTE5QiIgZD0iTTg0Mi4zOTQ1OTUgNzk5LjczMzIzNyA2NDAuOTczMDc2IDc5OS43MzMyMzcgNjQwLjk3MzA3NiA5MTQuODI1NTA4bDU3LjU0OTAwNSAwYzE1LjkwMzg1MyAwIDI4Ljc3NDUwMyAxMi44NjkwOTkgMjguNzc0NTAzIDI4Ljc3MzMyNCAwIDE1LjkwMzIwMi0xMi44NzA2NDkgMjguNzcyMy0yOC43NzQ1MDMgMjguNzcyM0wzNTMuMjI4MDUgOTcyLjM3MTEzMmMtMTUuOTA0ODc3IDAtMjguNzc0NTAzLTEyLjg2OTA5OS0yOC43NzQ1MDMtMjguNzcyMyAwLTE1LjkwNDIyNSAxMi44Njk2MjYtMjguNzczMzI0IDI4Ljc3NDUwMy0yOC43NzMzMjRsNTcuNTQ5MDA1IDBMNDEwLjc3NzA1NSA3OTkuNzMzMjM3IDE4MC41ODEwMzQgNzk5LjczMzIzN2MtNjMuNTYyMTk5IDAtMTE1LjA5ODAxMS01MS41MzM3LTExNS4wOTgwMTEtMTE1LjA5MzI5NUw2NS40ODMwMjMgMTY2LjcyMDExNmMwLTYzLjU1OTU5NSA1MS41MzU4MTItMTE1LjA5MzI5NSAxMTUuMDk4MDExLTExNS4wOTMyOTVsNjYxLjgxMjUzNyAwYzYzLjU2MTE3NiAwIDExNS4wOTgwMTEgNTEuNTMzNyAxMTUuMDk4MDExIDExNS4wOTMyOTVsMCA1MTcuOTE5ODI2Qzk1Ny40OTE1ODIgNzQ4LjE5ODUxMyA5MDUuOTU1NzcgNzk5LjczMzIzNyA4NDIuMzk0NTk1IDc5OS43MzMyMzd6TTU4My40MjQwNzEgOTE0LjgyNTUwOCA1ODMuNDI0MDcxIDc5OS43MzMyMzcgNDY4LjMyNjA2IDc5OS43MzMyMzcgNDY4LjMyNjA2IDkxNC44MjU1MDggNTgzLjQyNDA3MSA5MTQuODI1NTA4ek04OTkuOTQyNTc3IDE2Ni43MjAxMTZjMC0zMS43Nzk3OTctMjUuNzY3OTA2LTU3LjU0NjY0Ny01Ny41NDc5ODItNTcuNTQ2NjQ3TDE4MC41ODEwMzQgMTA5LjE3MzQ2OGMtMzEuNzgxMDk5IDAtNTcuNTQ5MDA1IDI1Ljc2Njg1LTU3LjU0OTAwNSA1Ny41NDY2NDdsMCA0MDIuODI2NTMyTDg5OS45NDI1NzcgNTY5LjU0NjY0NyA4OTkuOTQyNTc3IDE2Ni43MjAxMTZ6TTg5OS45NDI1NzcgNjI3LjA5MzI5NSAxMjMuMDMzMDUyIDYyNy4wOTMyOTVsMCA1Ny41NDY2NDdjMCAzMS43Nzk3OTcgMjUuNzY3OTA2IDU3LjU0NTYyNCA1Ny41NDkwMDUgNTcuNTQ1NjI0bDY2MS44MTI1MzcgMGMzMS43ODEwOTkgMCA1Ny41NDc5ODItMjUuNzY2ODUgNTcuNTQ3OTgyLTU3LjU0NTYyNEw4OTkuOTQyNTc3IDYyNy4wOTMyOTV6Ii8+PC9zdmc+" parent="1" vertex="1">
          <mxGeometry x="70" y="334" width="66" height="66" as="geometry" />
        </mxCell>
        <mxCell id="LvesvwtV2vatUiFBe1HR-21535" value="" style="shape=flexArrow;endArrow=block;startArrow=classic;html=1;rounded=0;fillColor=#FDD276;strokeColor=none;fontColor=#4D4D4D;endFill=0;" parent="1" edge="1">
          <mxGeometry width="100" height="100" relative="1" as="geometry">
            <mxPoint x="466" y="451.71" as="sourcePoint" />
            <mxPoint x="549" y="451.71" as="targetPoint" />
          </mxGeometry>
        </mxCell>
        <mxCell id="LvesvwtV2vatUiFBe1HR-21542" value="&lt;font style=&quot;font-size: 18px;&quot; color=&quot;#595959&quot;&gt;data&lt;/font&gt;" style="rounded=1;whiteSpace=wrap;html=1;fontColor=#4A919B;fillColor=#9AC7BF;strokeColor=none;" parent="1" vertex="1">
          <mxGeometry x="485" y="389.5" width="45" height="44" as="geometry" />
        </mxCell>
        <mxCell id="GdjG1Uhx_Fd8zdyyqZ3t-2" value="" style="shape=flexArrow;endArrow=none;startArrow=classic;html=1;rounded=0;fillColor=#FDD276;strokeColor=none;fontColor=#4D4D4D;endFill=0;" parent="1" edge="1">
          <mxGeometry width="100" height="100" relative="1" as="geometry">
            <mxPoint x="165" y="488.5" as="sourcePoint" />
            <mxPoint x="207" y="488.5" as="targetPoint" />
          </mxGeometry>
        </mxCell>
        <mxCell id="GdjG1Uhx_Fd8zdyyqZ3t-4" value="" style="shape=flexArrow;endArrow=none;startArrow=classic;html=1;rounded=0;fillColor=#FDD276;strokeColor=none;fontColor=#4D4D4D;endFill=0;" parent="1" edge="1">
          <mxGeometry width="100" height="100" relative="1" as="geometry">
            <mxPoint x="207" y="416.89" as="sourcePoint" />
            <mxPoint x="165" y="416.89" as="targetPoint" />
          </mxGeometry>
        </mxCell>
        <mxCell id="GdjG1Uhx_Fd8zdyyqZ3t-9" value="" style="shape=image;verticalLabelPosition=bottom;labelBackgroundColor=default;verticalAlign=top;aspect=fixed;imageAspect=0;image=data:image/svg+xml,PHN2ZyB4bWxuczp4bGluaz0iaHR0cDovL3d3dy53My5vcmcvMTk5OS94bGluayIgeG1sbnM9Imh0dHA6Ly93d3cudzMub3JnLzIwMDAvc3ZnIiBoZWlnaHQ9IjEyOCIgd2lkdGg9IjEzNy43NSIgdmVyc2lvbj0iMS4xIiB2aWV3Qm94PSIwIDAgMTEwMiAxMDI0IiBjbGFzcz0iaWNvbiI+PHBhdGggZmlsbD0iIzRBOTE5QiIgZD0iTTk0MC4yNjgzMDggMTAyNEg3NjAuNjQ4MjA1di04MS4xMzIzMDhoMTc5LjY5ODg3MmE4MS4zOTQ4NzIgODEuMzk0ODcyIDAgMCAwIDgxLjI2MzU5LTgxLjM5NDg3MVYxNjIuNTI3MTc5YTgxLjM5NDg3MiA4MS4zOTQ4NzIgMCAwIDAtODEuMjM3MzM0LTgxLjM5NDg3MUg3MzQuMzkxNzk1VjBoMjA1Ljk1NTI4MkExNjIuNzg5NzQ0IDE2Mi43ODk3NDQgMCAwIDEgMTEwMi43NjkyMzEgMTYyLjUyNzE3OXY2OTguOTQ1NjQyQTE2My4wMjYwNTEgMTYzLjAyNjA1MSAwIDAgMSA5NDAuMjY4MzA4IDEwMjR6IG0tMjU1Ljg5NDk3NS02OTAuMDE4NDYyYTMzLjIxNDM1OSAzMy4yMTQzNTkgMCAwIDEtMzcuMjU3ODQ2LTI0LjY4MTAyNWMtMC4yMTAwNTEtMi4xMDA1MTMtNS41OTI2MTUtNDUuNDIzNTktNDEuNjY4OTIzLTQ1LjQyMzU5LTM4LjgzMzIzMSAwLTY0LjAzOTM4NSA2Ni42OTEyODItNzQuNjk5NDg3IDk1LjMxMDc2OWwtMi45NDA3MTggNy42MTQzNTljLTIuNjI1NjQxIDYuODI2NjY3LTkuMjY4NTEzIDI3LjA0NDEwMy0xOC4zNzk0ODcgNTUuMTM4NDYyaDg0LjQ2Njg3MmEyNy43NzkyODIgMjcuNzc5MjgyIDAgMSAxIDAgNTMuODI1NjQxaC0xMDEuNjkxMDc3cS00Ni4xMzI1MTMgMTQ1LjcyMzA3Ny05MS4zNDYwNTIgMjkxLjE4MzU5QTExOC4yODUxMjggMTE4LjI4NTEyOCAwIDAgMSAyODkuMTg4MTAzIDg0MC4yMDUxMjhhMTM4LjYzMzg0NiAxMzguNjMzODQ2IDAgMCAxLTEzMC4yMDU1MzktODcuNjk2NDEgMjYuNzgxNTM4IDI2Ljc4MTUzOCAwIDAgMSAyMy42MzA3NjktMzMuMzQ1NjQxIDM2Ljk2OTAyNiAzNi45NjkwMjYgMCAwIDEgNDIuOTI5MjMxIDE4LjM3OTQ4NyA3Ni45MzEyODIgNzYuOTMxMjgyIDAgMCAwIDYzLjY5ODA1MSA0OC44MzY5MjMgNTQuNzQ0NjE1IDU0Ljc0NDYxNSAwIDAgMCA0NS4xMDg1MTMtMzQuMTMzMzMzYzUuMDkzNzQ0LTE2LjI3ODk3NCA1MS4wMTYyMDUtMTY0LjM2NTEyOCA4Ni42NDYxNTQtMjc2LjQ4aC0xMDQuMDI3ODk3YTI3Ljc3OTI4MiAyNy43NzkyODIgMCAxIDEgMC01My44MjU2NDFoMTIxLjE0NzA3N2MxMS4zOTUyODItMzUuNDQ2MTU0IDIwLjE2NDkyMy02MS45NjUxMjggMjMuNjMwNzY5LTcwLjYyOTc0NGwyLjYyNTY0MS03LjM1MTc5NWMxNi4zNTc3NDQtNDMuMzIzMDc3IDUwLjQxMjMwOC0xMzMuOTA3NjkyIDE0MS4xODA3MTgtMTMzLjkwNzY5MmExMDYuMDIzMzg1IDEwNi4wMjMzODUgMCAwIDEgMTEwLjc0OTUzOCA5NC43ODU2NDEgMzAuMTk0ODcyIDMwLjE5NDg3MiAwIDAgMS0zMS45Mjc3OTUgMjkuMTQ0NjE1ek01MjQuNzYwNjE1IDBoNzkuNDI1NjQxdjc5LjI5NDM1OWgtNzkuNDI1NjQxVjB6TTgxLjI2MzU5IDE2Mi41MjcxNzl2Njk4Ljk0NTY0MmE4MS4zOTQ4NzIgODEuMzk0ODcyIDAgMCAwIDgxLjIzNzMzMyA4MS4xMzIzMDdoMjMyLjIzNzk0OVYxMDI0SDE2Mi41MDA5MjNBMTYzLjAyNjA1MSAxNjMuMDI2MDUxIDAgMCAxIDAgODYxLjQ3MjgyMVYxNjIuNTI3MTc5QTE2Mi43ODk3NDQgMTYyLjc4OTc0NCAwIDAgMSAxNjIuNTAwOTIzIDBoMjMyLjIzNzk0OXY4MS4xMzIzMDhIMTYyLjUwMDkyM0E4MS4zOTQ4NzIgODEuMzk0ODcyIDAgMCAwIDgxLjM5NDg3MiAxNjIuNTI3MTc5ek02MDQuMTg2MjU2IDEwMjRoLTc5LjQyNTY0MXYtNzkuNTU2OTIzaDc5LjQyNTY0MVYxMDI0eiBtLTI5LjAzOTU4OS0yODAuNjgxMDI2YTI4LjM1NjkyMyAyOC4zNTY5MjMgMCAwIDEgMTEuMjY0LTIxLjc5MjgybDczLjUxNzk0OC02Ny40Nzg5NzUtNjcuMDU4ODcxLTYwLjEyNzE3OWEyOS43NDg1MTMgMjkuNzQ4NTEzIDAgMCAxIDI0LjE1NTg5Ny01My41NjMwNzcgNTAuODMyNDEgNTAuODMyNDEgMCAwIDEgMzguMDcxNzk1IDE2LjI3ODk3NGw1My4xMTY3MTggNTUuMTM4NDYyIDU0LjE5MzIzMS01NS4xMzg0NjJhNTAuOTExMTc5IDUwLjkxMTE3OSAwIDAgMSAzNS40NDYxNTMtMTYuMjc4OTc0IDMzLjQ1MDY2NyAzMy40NTA2NjcgMCAwIDEgMzguMDcxNzk1IDI3LjU2OTIzMSAzMC43OTg3NjkgMzAuNzk4NzY5IDAgMCAxLTExLjIxMTQ4NyAyMS43OTI4MmwtNjkuODQyMDUxIDYzLjI3Nzk0OSA3MS44OTAwNTEgNjQuMzI4MjA1YTI5LjcyMjI1NiAyOS43MjIyNTYgMCAwIDEtMjQuMTAzMzg0IDUzLjU2MzA3NyA1MS44MDM4OTcgNTEuODAzODk3IDAgMCAxLTM4LjA5ODA1Mi0xNi4yNzg5NzRsLTU3Ljk3NDE1NC01OS4zMzk0ODctNTcuOTIxNjQxIDU5LjMzOTQ4N2E1MC41NDM1OSA1MC41NDM1OSAwIDAgMS0zNS40NDYxNTMgMTYuMDE2NDEgMzMuMzE5Mzg1IDMzLjMxOTM4NSAwIDAgMS0zOC4yMDMwNzctMjcuMzA2NjY3eiBtMjI3LjQ4NTUzOCAyNy41NjkyMzF6Ii8+PC9zdmc+;" parent="1" vertex="1">
          <mxGeometry x="52" y="402.7" width="102.01" height="94.61" as="geometry" />
        </mxCell>
        <mxCell id="ErV8i_QmtO4-MUSccsJL-12" value="" style="shape=flexArrow;endArrow=none;startArrow=classic;html=1;rounded=0;fillColor=#FDD276;strokeColor=none;fontColor=#4D4D4D;endFill=0;" parent="1" edge="1">
          <mxGeometry width="100" height="100" relative="1" as="geometry">
            <mxPoint x="316" y="485.4799999999999" as="sourcePoint" />
            <mxPoint x="358" y="485.4799999999999" as="targetPoint" />
          </mxGeometry>
        </mxCell>
        <mxCell id="ErV8i_QmtO4-MUSccsJL-13" value="" style="shape=flexArrow;endArrow=none;startArrow=classic;html=1;rounded=0;fillColor=#FDD276;strokeColor=none;fontColor=#4D4D4D;endFill=0;" parent="1" edge="1">
          <mxGeometry width="100" height="100" relative="1" as="geometry">
            <mxPoint x="360" y="413.87" as="sourcePoint" />
            <mxPoint x="318" y="413.87" as="targetPoint" />
          </mxGeometry>
        </mxCell>
        <mxCell id="EO5z-An4_AKbCT2PPY28-1" value="&lt;font style=&quot;font-size: 25px;&quot; color=&quot;#ffffff&quot;&gt;&lt;b&gt;UDP&lt;/b&gt;&lt;/font&gt;" style="rounded=1;whiteSpace=wrap;html=1;fillColor=#6DB5A8;strokeWidth=2;strokeColor=none;" parent="1" vertex="1">
          <mxGeometry x="372" y="383" width="85" height="134" as="geometry" />
        </mxCell>
      </root>
    </mxGraphModel>
  </diagram>
</mxfile>
